<?xml version="1.0" encoding="UTF-8" standalone="no"?>
<!DOCTYPE svg PUBLIC "-//W3C//DTD SVG 1.1//EN"
 "http://www.w3.org/Graphics/SVG/1.1/DTD/svg11.dtd">
<!-- Generated by graphviz version 2.42.4 (0)
 -->
<!-- Title: G Pages: 1 -->
<svg width="211pt" height="508pt"
 viewBox="0.00 0.00 210.80 507.80" xmlns="http://www.w3.org/2000/svg" xmlns:xlink="http://www.w3.org/1999/xlink">
<g id="graph0" class="graph" transform="scale(1 1) rotate(0) translate(14.4 493.4)">
<title>G</title>
<!-- P -->
<g id="node1" class="node">
<title>P</title>
<polygon fill="none" stroke="black" points="169.5,-479 6.5,-479 6.5,-439 175.5,-439 175.5,-473 169.5,-479"/>
<polyline fill="none" stroke="black" points="169.5,-479 169.5,-473 "/>
<polyline fill="none" stroke="black" points="175.5,-473 169.5,-473 "/>
<text text-anchor="middle" x="91" y="-462.4" font-family="DejaVu Sans" font-size="12.00">Project problem framing</text>
<text text-anchor="middle" x="91" y="-449.4" font-family="DejaVu Sans" font-size="12.00">(method precondition)</text>
</g>
<!-- MR -->
<g id="node2" class="node">
<title>MR</title>
<path fill="none" stroke="black" d="M150,-388C150,-388 32,-388 32,-388 26,-388 20,-382 20,-376 20,-376 20,-364 20,-364 20,-358 26,-352 32,-352 32,-352 150,-352 150,-352 156,-352 162,-358 162,-364 162,-364 162,-376 162,-376 162,-382 156,-388 150,-388"/>
<text text-anchor="middle" x="91" y="-366.9" font-family="DejaVu Sans" font-size="12.00">Macro Requirement</text>
</g>
<!-- P&#45;&gt;MR -->
<g id="edge1" class="edge">
<title>P&#45;&gt;MR</title>
<path fill="none" stroke="black" d="M91,-438.69C91,-426.88 91,-411.58 91,-398.52"/>
<polygon fill="black" stroke="black" points="94.5,-398.19 91,-388.19 87.5,-398.19 94.5,-398.19"/>
<text text-anchor="middle" x="108.5" y="-411" font-family="DejaVu Sans" font-size="10.00">frames</text>
</g>
<!-- D -->
<g id="node3" class="node">
<title>D</title>
<path fill="none" stroke="black" d="M116.5,-301C116.5,-301 65.5,-301 65.5,-301 59.5,-301 53.5,-295 53.5,-289 53.5,-289 53.5,-277 53.5,-277 53.5,-271 59.5,-265 65.5,-265 65.5,-265 116.5,-265 116.5,-265 122.5,-265 128.5,-271 128.5,-277 128.5,-277 128.5,-289 128.5,-289 128.5,-295 122.5,-301 116.5,-301"/>
<text text-anchor="middle" x="91" y="-279.9" font-family="DejaVu Sans" font-size="12.00">Decision</text>
</g>
<!-- MR&#45;&gt;D -->
<g id="edge2" class="edge">
<title>MR&#45;&gt;D</title>
<path fill="none" stroke="black" d="M91,-351.8C91,-340.16 91,-324.55 91,-311.24"/>
<polygon fill="black" stroke="black" points="94.5,-311.18 91,-301.18 87.5,-311.18 94.5,-311.18"/>
<text text-anchor="middle" x="114" y="-324" font-family="DejaVu Sans" font-size="10.00">owns 0..*</text>
</g>
<!-- FR -->
<g id="node4" class="node">
<title>FR</title>
<path fill="none" stroke="black" d="M162,-214C162,-214 20,-214 20,-214 14,-214 8,-208 8,-202 8,-202 8,-190 8,-190 8,-184 14,-178 20,-178 20,-178 162,-178 162,-178 168,-178 174,-184 174,-190 174,-190 174,-202 174,-202 174,-208 168,-214 162,-214"/>
<text text-anchor="middle" x="91" y="-192.9" font-family="DejaVu Sans" font-size="12.00">Functional Requirement</text>
</g>
<!-- D&#45;&gt;FR -->
<g id="edge3" class="edge">
<title>D&#45;&gt;FR</title>
<path fill="none" stroke="black" d="M91,-264.8C91,-253.16 91,-237.55 91,-224.24"/>
<polygon fill="black" stroke="black" points="94.5,-224.18 91,-214.18 87.5,-224.18 94.5,-224.18"/>
<text text-anchor="middle" x="114" y="-237" font-family="DejaVu Sans" font-size="10.00">owns 0..*</text>
</g>
<!-- SR -->
<g id="node5" class="node">
<title>SR</title>
<path fill="none" stroke="black" d="M165,-127C165,-127 17,-127 17,-127 11,-127 5,-121 5,-115 5,-115 5,-103 5,-103 5,-97 11,-91 17,-91 17,-91 165,-91 165,-91 171,-91 177,-97 177,-103 177,-103 177,-115 177,-115 177,-121 171,-127 165,-127"/>
<text text-anchor="middle" x="91" y="-105.9" font-family="DejaVu Sans" font-size="12.00">Specialized Requirement</text>
</g>
<!-- FR&#45;&gt;SR -->
<g id="edge4" class="edge">
<title>FR&#45;&gt;SR</title>
<path fill="none" stroke="black" d="M91,-177.8C91,-166.16 91,-150.55 91,-137.24"/>
<polygon fill="black" stroke="black" points="94.5,-137.18 91,-127.18 87.5,-137.18 94.5,-137.18"/>
<text text-anchor="middle" x="114" y="-150" font-family="DejaVu Sans" font-size="10.00">owns 0..*</text>
</g>
<!-- SEC -->
<g id="node6" class="node">
<title>SEC</title>
<path fill="none" stroke="black" d="M170,-40C170,-40 12,-40 12,-40 6,-40 0,-34 0,-28 0,-28 0,-12 0,-12 0,-6 6,0 12,0 12,0 170,0 170,0 176,0 182,-6 182,-12 182,-12 182,-28 182,-28 182,-34 176,-40 170,-40"/>
<text text-anchor="middle" x="91" y="-23.4" font-family="DejaVu Sans" font-size="12.00">Security Requirement</text>
<text text-anchor="middle" x="91" y="-10.4" font-family="DejaVu Sans" font-size="12.00">(next thesis specialization)</text>
</g>
<!-- SR&#45;&gt;SEC -->
<g id="edge5" class="edge">
<title>SR&#45;&gt;SEC</title>
<path fill="none" stroke="black" stroke-dasharray="5,2" d="M91,-90.81C91,-79.32 91,-63.91 91,-50.49"/>
<polygon fill="black" stroke="black" points="94.5,-50.27 91,-40.27 87.5,-50.27 94.5,-50.27"/>
<text text-anchor="middle" x="118.5" y="-63" font-family="DejaVu Sans" font-size="10.00">thesis path</text>
</g>
</g>
</svg>
